# xmcd CD database file
#
# Track frame offsets:
#	150
#	10249
#	19490
#	30209
#	39517
#	47334
#	57294
#	69807
#	81156
#	90529
#	103414
#	117111
#	127513
#	136987
#	147091
#	158630
#	170528
#	181160
#	192904
#	206979
#	217702
#	228572
#	240965
#	253075
#	267218
#	278316
#	290702
#	302027
#	311425
#	321086
#	330909
#	344916
#
# Disc length: 4729 seconds
#
# Revision: 0
# Processed by: cddbd v1.5.2PL0 Copyright (c) Steve Scherf et al.
# Submitted via: CDex 1.70beta2
#
DISCID=b3127720
DTITLE=Sampler - After Sun  CD 1
DYEAR=2013
DGENRE=Blues
TTITLE0=Jackie Brenston - Trouble Up The Road
TTITLE1=Ike Turner - Hey...Hey
TTITLE2=Elvis Presley - So Glad You`re Mine
TTITLE3=Ray Smith - That`s All Right
TTITLE4=Hardrock Gunter - Whoo! Mean Wheel
TTITLE5=Jeff Daniels - Switch Blade Sam
TTITLE6=Howlin' Wolf - Neighbors
TTITLE7=Conway Twitty - I Need Your Lovin'
TTITLE8=Bill Riley - Is That All To The Ball (Mr. Hall)
TTITLE9=Little Junior Parker - I Wanna Ramble
TTITLE10=B.B.King - House Rocker (a.k.a.Boogie Rock)
TTITLE11=Jimmy Williams - I Belong To You
TTITLE12=Smokey Joe - Perfect Girl
TTITLE13=The Simmons - Out Of This World
TTITLE14=Tommy Blake - $ F-- olding Money $
TTITLE15=B.B.King - Bim Bam
TTITLE16=Doctor Ross - Cat Squirrel
TTITLE17=Lee Mitchell - Who`s That Big Man?
TTITLE18=Rudy Grayzell - F-B-I Story
TTITLE19=Rosco Gordon - What I Wouldn`t Do
TTITLE20=Onie Wheeler - White Lightning Cherokee
TTITLE21=Howard Chandler - Wampus Cat
TTITLE22=Joe Hill Louis - Hydramatic Woman
TTITLE23=Jimmy Haggett - Gonna Shut You Off, Baby
TTITLE24=Charlie Feathers - Why Don`t You
TTITLE25=Billy Emmerson - Do The Chicken
TTITLE26=Little Junior Parker - That´s My Baby
TTITLE27=Narvel Felts - Cry, Baby, Cry
TTITLE28=Roy Orbison - Up Town
TTITLE29=Gene Simmons - The Shape You Left Me In
TTITLE30=Carl Perkins - Where The Rio De Rosa Flows
TTITLE31=Carl Simmon`s Orchestra - Boodoo
EXTD=YEAR: 2013
EXTT0=
EXTT1=
EXTT2=
EXTT3=
EXTT4=
EXTT5=
EXTT6=
EXTT7=
EXTT8=
EXTT9=
EXTT10=
EXTT11=
EXTT12=
EXTT13=
EXTT14=
EXTT15=
EXTT16=
EXTT17=
EXTT18=
EXTT19=
EXTT20=
EXTT21=
EXTT22=
EXTT23=
EXTT24=
EXTT25=
EXTT26=
EXTT27=
EXTT28=
EXTT29=
EXTT30=
EXTT31=
PLAYORDER=
